<mxfile host="app.diagrams.net" agent="Mozilla/5.0 (Macintosh; Intel Mac OS X 10_15_7) AppleWebKit/537.36 (KHTML, like Gecko) Chrome/129.0.0.0 Safari/537.36" version="24.8.4">
  <diagram name="Page-1" id="RIPOSOB8vfV2EPrKnL5X">
    <mxGraphModel dx="2663" dy="1072" grid="1" gridSize="10" guides="1" tooltips="1" connect="1" arrows="1" fold="1" page="1" pageScale="1" pageWidth="850" pageHeight="1100" math="0" shadow="0">
      <root>
        <mxCell id="0" />
        <mxCell id="1" parent="0" />
        <mxCell id="PDw0ZhWUSigSXVAjHn8G-3" value="&lt;font style=&quot;font-size: 18px;&quot;&gt;资产负债表&lt;/font&gt;" style="text;html=1;align=center;verticalAlign=middle;whiteSpace=wrap;rounded=0;" vertex="1" parent="1">
          <mxGeometry x="50" y="140" width="120" height="50" as="geometry" />
        </mxCell>
        <mxCell id="PDw0ZhWUSigSXVAjHn8G-4" value="&lt;font style=&quot;font-size: 18px;&quot;&gt;研发业务流&lt;/font&gt;" style="text;html=1;align=center;verticalAlign=middle;whiteSpace=wrap;rounded=0;" vertex="1" parent="1">
          <mxGeometry y="470" width="120" height="50" as="geometry" />
        </mxCell>
        <mxCell id="PDw0ZhWUSigSXVAjHn8G-5" value="&lt;font style=&quot;font-size: 18px;&quot;&gt;利润表&lt;/font&gt;" style="text;html=1;align=center;verticalAlign=middle;whiteSpace=wrap;rounded=0;" vertex="1" parent="1">
          <mxGeometry x="50" y="770" width="120" height="50" as="geometry" />
        </mxCell>
        <mxCell id="PDw0ZhWUSigSXVAjHn8G-14" style="edgeStyle=orthogonalEdgeStyle;rounded=0;orthogonalLoop=1;jettySize=auto;html=1;exitX=0.5;exitY=1;exitDx=0;exitDy=0;strokeColor=#ff0000;strokeWidth=2;" edge="1" parent="1" source="PDw0ZhWUSigSXVAjHn8G-37" target="PDw0ZhWUSigSXVAjHn8G-13">
          <mxGeometry relative="1" as="geometry" />
        </mxCell>
        <mxCell id="PDw0ZhWUSigSXVAjHn8G-15" value="费用化" style="edgeLabel;html=1;align=center;verticalAlign=middle;resizable=0;points=[];" vertex="1" connectable="0" parent="PDw0ZhWUSigSXVAjHn8G-14">
          <mxGeometry x="-0.375" y="-2" relative="1" as="geometry">
            <mxPoint as="offset" />
          </mxGeometry>
        </mxCell>
        <mxCell id="PDw0ZhWUSigSXVAjHn8G-27" style="edgeStyle=orthogonalEdgeStyle;rounded=0;orthogonalLoop=1;jettySize=auto;html=1;exitX=1;exitY=0.5;exitDx=0;exitDy=0;strokeColor=#0081fa;" edge="1" parent="1" source="PDw0ZhWUSigSXVAjHn8G-37" target="PDw0ZhWUSigSXVAjHn8G-7">
          <mxGeometry relative="1" as="geometry" />
        </mxCell>
        <mxCell id="PDw0ZhWUSigSXVAjHn8G-6" value="产品研发" style="rounded=1;whiteSpace=wrap;html=1;" vertex="1" parent="1">
          <mxGeometry x="240" y="460" width="80" height="40" as="geometry" />
        </mxCell>
        <mxCell id="PDw0ZhWUSigSXVAjHn8G-7" value="研发成果" style="rounded=1;whiteSpace=wrap;html=1;" vertex="1" parent="1">
          <mxGeometry x="450" y="460" width="70" height="40" as="geometry" />
        </mxCell>
        <mxCell id="PDw0ZhWUSigSXVAjHn8G-13" value="研发费用" style="rounded=0;whiteSpace=wrap;html=1;" vertex="1" parent="1">
          <mxGeometry x="333" y="740" width="80" height="40" as="geometry" />
        </mxCell>
        <mxCell id="PDw0ZhWUSigSXVAjHn8G-16" style="edgeStyle=orthogonalEdgeStyle;rounded=0;orthogonalLoop=1;jettySize=auto;html=1;exitX=0.5;exitY=0;exitDx=0;exitDy=0;strokeColor=#ff0000;strokeWidth=2;entryX=0.5;entryY=1;entryDx=0;entryDy=0;" edge="1" parent="1" source="PDw0ZhWUSigSXVAjHn8G-37" target="PDw0ZhWUSigSXVAjHn8G-18">
          <mxGeometry relative="1" as="geometry">
            <mxPoint x="258" y="510" as="sourcePoint" />
            <mxPoint x="378" y="270" as="targetPoint" />
          </mxGeometry>
        </mxCell>
        <mxCell id="PDw0ZhWUSigSXVAjHn8G-17" value="分步资产化" style="edgeLabel;html=1;align=center;verticalAlign=middle;resizable=0;points=[];" vertex="1" connectable="0" parent="PDw0ZhWUSigSXVAjHn8G-16">
          <mxGeometry x="-0.375" y="-2" relative="1" as="geometry">
            <mxPoint x="-2" y="-13" as="offset" />
          </mxGeometry>
        </mxCell>
        <mxCell id="PDw0ZhWUSigSXVAjHn8G-22" value="开发完成" style="edgeStyle=orthogonalEdgeStyle;rounded=0;orthogonalLoop=1;jettySize=auto;html=1;exitX=1;exitY=0.5;exitDx=0;exitDy=0;" edge="1" parent="1" source="PDw0ZhWUSigSXVAjHn8G-18" target="PDw0ZhWUSigSXVAjHn8G-19">
          <mxGeometry y="10" relative="1" as="geometry">
            <Array as="points">
              <mxPoint x="450" y="270" />
              <mxPoint x="450" y="270" />
            </Array>
            <mxPoint as="offset" />
          </mxGeometry>
        </mxCell>
        <mxCell id="PDw0ZhWUSigSXVAjHn8G-18" value="开发支出" style="rounded=0;whiteSpace=wrap;html=1;" vertex="1" parent="1">
          <mxGeometry x="333" y="250" width="80" height="40" as="geometry" />
        </mxCell>
        <mxCell id="PDw0ZhWUSigSXVAjHn8G-25" style="edgeStyle=orthogonalEdgeStyle;rounded=0;orthogonalLoop=1;jettySize=auto;html=1;exitX=0.75;exitY=1;exitDx=0;exitDy=0;entryX=0.5;entryY=0;entryDx=0;entryDy=0;" edge="1" parent="1" source="PDw0ZhWUSigSXVAjHn8G-19" target="PDw0ZhWUSigSXVAjHn8G-23">
          <mxGeometry relative="1" as="geometry" />
        </mxCell>
        <mxCell id="PDw0ZhWUSigSXVAjHn8G-26" value="计提减值" style="edgeLabel;html=1;align=center;verticalAlign=middle;resizable=0;points=[];" vertex="1" connectable="0" parent="PDw0ZhWUSigSXVAjHn8G-25">
          <mxGeometry x="-0.0387" y="1" relative="1" as="geometry">
            <mxPoint as="offset" />
          </mxGeometry>
        </mxCell>
        <mxCell id="PDw0ZhWUSigSXVAjHn8G-19" value="无形资产" style="rounded=0;whiteSpace=wrap;html=1;" vertex="1" parent="1">
          <mxGeometry x="498" y="250" width="80" height="40" as="geometry" />
        </mxCell>
        <mxCell id="PDw0ZhWUSigSXVAjHn8G-23" value="资产减值损失" style="rounded=0;whiteSpace=wrap;html=1;" vertex="1" parent="1">
          <mxGeometry x="518" y="740" width="80" height="40" as="geometry" />
        </mxCell>
        <mxCell id="PDw0ZhWUSigSXVAjHn8G-30" style="edgeStyle=orthogonalEdgeStyle;rounded=0;orthogonalLoop=1;jettySize=auto;html=1;strokeColor=#ff0000;strokeWidth=2;exitX=0.5;exitY=0;exitDx=0;exitDy=0;entryX=0.25;entryY=1;entryDx=0;entryDy=0;" edge="1" parent="1" target="PDw0ZhWUSigSXVAjHn8G-19">
          <mxGeometry relative="1" as="geometry">
            <mxPoint x="372" y="455" as="sourcePoint" />
            <mxPoint x="730" y="430" as="targetPoint" />
            <Array as="points">
              <mxPoint x="369" y="455" />
              <mxPoint x="369" y="430" />
              <mxPoint x="518" y="430" />
            </Array>
          </mxGeometry>
        </mxCell>
        <mxCell id="PDw0ZhWUSigSXVAjHn8G-31" value="直接资产化" style="edgeLabel;html=1;align=center;verticalAlign=middle;resizable=0;points=[];" vertex="1" connectable="0" parent="PDw0ZhWUSigSXVAjHn8G-30">
          <mxGeometry x="-0.375" y="-2" relative="1" as="geometry">
            <mxPoint x="7" y="-12" as="offset" />
          </mxGeometry>
        </mxCell>
        <mxCell id="PDw0ZhWUSigSXVAjHn8G-35" value="人员" style="rounded=1;whiteSpace=wrap;html=1;" vertex="1" parent="1">
          <mxGeometry x="128" y="410" width="80" height="40" as="geometry" />
        </mxCell>
        <mxCell id="PDw0ZhWUSigSXVAjHn8G-36" value="场地设备等" style="rounded=1;whiteSpace=wrap;html=1;" vertex="1" parent="1">
          <mxGeometry x="128" y="520" width="80" height="40" as="geometry" />
        </mxCell>
        <mxCell id="PDw0ZhWUSigSXVAjHn8G-39" value="" style="edgeStyle=orthogonalEdgeStyle;rounded=0;orthogonalLoop=1;jettySize=auto;html=1;exitX=1;exitY=0.5;exitDx=0;exitDy=0;strokeColor=#0081fa;" edge="1" parent="1" source="PDw0ZhWUSigSXVAjHn8G-6" target="PDw0ZhWUSigSXVAjHn8G-37">
          <mxGeometry relative="1" as="geometry">
            <mxPoint x="288" y="480" as="sourcePoint" />
            <mxPoint x="413" y="480" as="targetPoint" />
          </mxGeometry>
        </mxCell>
        <mxCell id="PDw0ZhWUSigSXVAjHn8G-37" value="费用" style="ellipse;whiteSpace=wrap;html=1;aspect=fixed;" vertex="1" parent="1">
          <mxGeometry x="348" y="455" width="50" height="50" as="geometry" />
        </mxCell>
        <mxCell id="PDw0ZhWUSigSXVAjHn8G-42" value="" style="edgeStyle=orthogonalEdgeStyle;rounded=0;orthogonalLoop=1;jettySize=auto;html=1;strokeColor=#0081fa;exitX=0.5;exitY=1;exitDx=0;exitDy=0;entryX=0;entryY=0.25;entryDx=0;entryDy=0;" edge="1" parent="1" source="PDw0ZhWUSigSXVAjHn8G-35" target="PDw0ZhWUSigSXVAjHn8G-6">
          <mxGeometry relative="1" as="geometry">
            <mxPoint x="240" y="530" as="sourcePoint" />
            <mxPoint x="358" y="490" as="targetPoint" />
          </mxGeometry>
        </mxCell>
        <mxCell id="PDw0ZhWUSigSXVAjHn8G-43" value="" style="edgeStyle=orthogonalEdgeStyle;rounded=0;orthogonalLoop=1;jettySize=auto;html=1;strokeColor=#0081fa;exitX=0.5;exitY=0;exitDx=0;exitDy=0;entryX=0;entryY=0.75;entryDx=0;entryDy=0;" edge="1" parent="1" source="PDw0ZhWUSigSXVAjHn8G-36" target="PDw0ZhWUSigSXVAjHn8G-6">
          <mxGeometry relative="1" as="geometry">
            <mxPoint x="178" y="460" as="sourcePoint" />
            <mxPoint x="250" y="480" as="targetPoint" />
          </mxGeometry>
        </mxCell>
        <mxCell id="PDw0ZhWUSigSXVAjHn8G-45" value="" style="edgeStyle=orthogonalEdgeStyle;rounded=0;orthogonalLoop=1;jettySize=auto;html=1;exitX=0.5;exitY=1;exitDx=0;exitDy=0;strokeColor=#099f0c;strokeWidth=2;entryX=0.5;entryY=0;entryDx=0;entryDy=0;" edge="1" parent="1" source="PDw0ZhWUSigSXVAjHn8G-9" target="PDw0ZhWUSigSXVAjHn8G-6">
          <mxGeometry relative="1" as="geometry">
            <mxPoint x="280" y="235" as="sourcePoint" />
            <mxPoint x="280" y="360" as="targetPoint" />
          </mxGeometry>
        </mxCell>
        <mxCell id="PDw0ZhWUSigSXVAjHn8G-55" value="资金来源" style="edgeLabel;html=1;align=center;verticalAlign=middle;resizable=0;points=[];" vertex="1" connectable="0" parent="PDw0ZhWUSigSXVAjHn8G-45">
          <mxGeometry x="0.0211" y="-1" relative="1" as="geometry">
            <mxPoint as="offset" />
          </mxGeometry>
        </mxCell>
        <mxCell id="PDw0ZhWUSigSXVAjHn8G-9" value="货币资金" style="rounded=0;whiteSpace=wrap;html=1;" vertex="1" parent="1">
          <mxGeometry x="150" y="250" width="80" height="40" as="geometry" />
        </mxCell>
        <mxCell id="PDw0ZhWUSigSXVAjHn8G-47" value="应付债券" style="rounded=0;whiteSpace=wrap;html=1;" vertex="1" parent="1">
          <mxGeometry x="210" y="177" width="80" height="40" as="geometry" />
        </mxCell>
        <mxCell id="PDw0ZhWUSigSXVAjHn8G-48" value="短期借款" style="rounded=0;whiteSpace=wrap;html=1;" vertex="1" parent="1">
          <mxGeometry x="290" y="137" width="80" height="40" as="geometry" />
        </mxCell>
        <mxCell id="PDw0ZhWUSigSXVAjHn8G-49" value="长期借款" style="rounded=0;whiteSpace=wrap;html=1;" vertex="1" parent="1">
          <mxGeometry x="290" y="177" width="80" height="40" as="geometry" />
        </mxCell>
        <mxCell id="PDw0ZhWUSigSXVAjHn8G-50" value="长期应付款" style="rounded=0;whiteSpace=wrap;html=1;" vertex="1" parent="1">
          <mxGeometry x="210" y="137" width="80" height="40" as="geometry" />
        </mxCell>
        <mxCell id="PDw0ZhWUSigSXVAjHn8G-56" value="" style="edgeStyle=orthogonalEdgeStyle;rounded=0;orthogonalLoop=1;jettySize=auto;html=1;exitX=1;exitY=1;exitDx=0;exitDy=0;strokeColor=#099f0c;strokeWidth=2;" edge="1" parent="1" source="PDw0ZhWUSigSXVAjHn8G-47">
          <mxGeometry relative="1" as="geometry">
            <mxPoint x="200" y="300" as="sourcePoint" />
            <mxPoint x="290" y="460" as="targetPoint" />
          </mxGeometry>
        </mxCell>
        <mxCell id="PDw0ZhWUSigSXVAjHn8G-59" value="厂房设备" style="rounded=1;whiteSpace=wrap;html=1;" vertex="1" parent="1">
          <mxGeometry x="150" y="1440" width="80" height="40" as="geometry" />
        </mxCell>
        <mxCell id="PDw0ZhWUSigSXVAjHn8G-60" value="生产人员" style="rounded=1;whiteSpace=wrap;html=1;" vertex="1" parent="1">
          <mxGeometry x="150" y="1500" width="80" height="40" as="geometry" />
        </mxCell>
        <mxCell id="PDw0ZhWUSigSXVAjHn8G-89" style="edgeStyle=orthogonalEdgeStyle;rounded=0;orthogonalLoop=1;jettySize=auto;html=1;exitX=1;exitY=0.5;exitDx=0;exitDy=0;" edge="1" parent="1" source="PDw0ZhWUSigSXVAjHn8G-61" target="PDw0ZhWUSigSXVAjHn8G-88">
          <mxGeometry relative="1" as="geometry" />
        </mxCell>
        <mxCell id="PDw0ZhWUSigSXVAjHn8G-90" value="生产" style="edgeLabel;html=1;align=center;verticalAlign=middle;resizable=0;points=[];" vertex="1" connectable="0" parent="PDw0ZhWUSigSXVAjHn8G-89">
          <mxGeometry x="0.08" y="3" relative="1" as="geometry">
            <mxPoint x="-4" y="-12" as="offset" />
          </mxGeometry>
        </mxCell>
        <mxCell id="PDw0ZhWUSigSXVAjHn8G-61" value="生产活动" style="rounded=1;whiteSpace=wrap;html=1;" vertex="1" parent="1">
          <mxGeometry x="340" y="1425" width="80" height="40" as="geometry" />
        </mxCell>
        <mxCell id="PDw0ZhWUSigSXVAjHn8G-64" value="无形资产" style="rounded=0;whiteSpace=wrap;html=1;" vertex="1" parent="1">
          <mxGeometry x="310" y="1180" width="80" height="40" as="geometry" />
        </mxCell>
        <mxCell id="PDw0ZhWUSigSXVAjHn8G-66" value="货币资金" style="rounded=0;whiteSpace=wrap;html=1;" vertex="1" parent="1">
          <mxGeometry x="470" y="1260" width="80" height="40" as="geometry" />
        </mxCell>
        <mxCell id="PDw0ZhWUSigSXVAjHn8G-67" value="应付债券" style="rounded=0;whiteSpace=wrap;html=1;" vertex="1" parent="1">
          <mxGeometry x="100" y="1260" width="80" height="40" as="geometry" />
        </mxCell>
        <mxCell id="PDw0ZhWUSigSXVAjHn8G-68" value="短期借款" style="rounded=0;whiteSpace=wrap;html=1;" vertex="1" parent="1">
          <mxGeometry x="180" y="1220" width="80" height="40" as="geometry" />
        </mxCell>
        <mxCell id="PDw0ZhWUSigSXVAjHn8G-69" value="长期借款" style="rounded=0;whiteSpace=wrap;html=1;" vertex="1" parent="1">
          <mxGeometry x="180" y="1260" width="80" height="40" as="geometry" />
        </mxCell>
        <mxCell id="PDw0ZhWUSigSXVAjHn8G-70" value="长期应付款" style="rounded=0;whiteSpace=wrap;html=1;" vertex="1" parent="1">
          <mxGeometry x="100" y="1220" width="80" height="40" as="geometry" />
        </mxCell>
        <mxCell id="PDw0ZhWUSigSXVAjHn8G-73" value="" style="edgeStyle=orthogonalEdgeStyle;rounded=0;orthogonalLoop=1;jettySize=auto;html=1;strokeColor=#0081fa;exitX=1;exitY=0.5;exitDx=0;exitDy=0;entryX=0;entryY=0.5;entryDx=0;entryDy=0;" edge="1" parent="1" source="PDw0ZhWUSigSXVAjHn8G-59" target="PDw0ZhWUSigSXVAjHn8G-61">
          <mxGeometry relative="1" as="geometry">
            <mxPoint x="-332" y="1470" as="sourcePoint" />
            <mxPoint x="-260" y="1490" as="targetPoint" />
          </mxGeometry>
        </mxCell>
        <mxCell id="PDw0ZhWUSigSXVAjHn8G-74" value="" style="edgeStyle=orthogonalEdgeStyle;rounded=0;orthogonalLoop=1;jettySize=auto;html=1;strokeColor=#0081fa;exitX=1;exitY=0.5;exitDx=0;exitDy=0;entryX=0;entryY=0.75;entryDx=0;entryDy=0;" edge="1" parent="1" source="PDw0ZhWUSigSXVAjHn8G-60" target="PDw0ZhWUSigSXVAjHn8G-61">
          <mxGeometry relative="1" as="geometry">
            <mxPoint x="240" y="1455" as="sourcePoint" />
            <mxPoint x="350" y="1455" as="targetPoint" />
          </mxGeometry>
        </mxCell>
        <mxCell id="PDw0ZhWUSigSXVAjHn8G-75" value="" style="edgeStyle=orthogonalEdgeStyle;rounded=0;orthogonalLoop=1;jettySize=auto;html=1;strokeColor=#099f0c;strokeWidth=2;entryX=0.25;entryY=0;entryDx=0;entryDy=0;" edge="1" parent="1" target="PDw0ZhWUSigSXVAjHn8G-61">
          <mxGeometry relative="1" as="geometry">
            <mxPoint x="180" y="1300" as="sourcePoint" />
            <mxPoint x="300" y="1412" as="targetPoint" />
            <Array as="points">
              <mxPoint x="180" y="1377" />
              <mxPoint x="360" y="1377" />
            </Array>
          </mxGeometry>
        </mxCell>
        <mxCell id="PDw0ZhWUSigSXVAjHn8G-76" value="资金" style="edgeLabel;html=1;align=center;verticalAlign=middle;resizable=0;points=[];" vertex="1" connectable="0" parent="PDw0ZhWUSigSXVAjHn8G-75">
          <mxGeometry x="0.0211" y="-1" relative="1" as="geometry">
            <mxPoint x="25" y="-11" as="offset" />
          </mxGeometry>
        </mxCell>
        <mxCell id="PDw0ZhWUSigSXVAjHn8G-156" style="edgeStyle=orthogonalEdgeStyle;rounded=0;orthogonalLoop=1;jettySize=auto;html=1;exitX=1;exitY=0.5;exitDx=0;exitDy=0;entryX=0;entryY=0.5;entryDx=0;entryDy=0;" edge="1" parent="1" source="PDw0ZhWUSigSXVAjHn8G-77" target="PDw0ZhWUSigSXVAjHn8G-155">
          <mxGeometry relative="1" as="geometry" />
        </mxCell>
        <mxCell id="PDw0ZhWUSigSXVAjHn8G-77" value="固定资产" style="rounded=0;whiteSpace=wrap;html=1;" vertex="1" parent="1">
          <mxGeometry x="310" y="1100" width="80" height="40" as="geometry" />
        </mxCell>
        <mxCell id="PDw0ZhWUSigSXVAjHn8G-78" value="" style="edgeStyle=orthogonalEdgeStyle;rounded=0;orthogonalLoop=1;jettySize=auto;html=1;strokeColor=#099f0c;strokeWidth=2;exitX=0.5;exitY=1;exitDx=0;exitDy=0;" edge="1" parent="1" source="PDw0ZhWUSigSXVAjHn8G-84">
          <mxGeometry relative="1" as="geometry">
            <mxPoint x="250" y="1290" as="sourcePoint" />
            <mxPoint x="380" y="1425" as="targetPoint" />
            <Array as="points">
              <mxPoint x="350" y="1363" />
              <mxPoint x="380" y="1363" />
              <mxPoint x="380" y="1425" />
            </Array>
          </mxGeometry>
        </mxCell>
        <mxCell id="PDw0ZhWUSigSXVAjHn8G-79" value="厂房、技术" style="edgeLabel;html=1;align=center;verticalAlign=middle;resizable=0;points=[];" vertex="1" connectable="0" parent="PDw0ZhWUSigSXVAjHn8G-78">
          <mxGeometry x="0.0211" y="-1" relative="1" as="geometry">
            <mxPoint x="-18" y="-34" as="offset" />
          </mxGeometry>
        </mxCell>
        <mxCell id="PDw0ZhWUSigSXVAjHn8G-80" value="" style="edgeStyle=orthogonalEdgeStyle;rounded=0;orthogonalLoop=1;jettySize=auto;html=1;strokeColor=#099f0c;strokeWidth=2;exitX=0.5;exitY=1;exitDx=0;exitDy=0;entryX=0.75;entryY=0;entryDx=0;entryDy=0;" edge="1" parent="1" source="PDw0ZhWUSigSXVAjHn8G-66" target="PDw0ZhWUSigSXVAjHn8G-61">
          <mxGeometry relative="1" as="geometry">
            <mxPoint x="190" y="1310" as="sourcePoint" />
            <mxPoint x="380" y="1420" as="targetPoint" />
            <Array as="points">
              <mxPoint x="510" y="1310" />
              <mxPoint x="400" y="1310" />
            </Array>
          </mxGeometry>
        </mxCell>
        <mxCell id="PDw0ZhWUSigSXVAjHn8G-81" value="资金" style="edgeLabel;html=1;align=center;verticalAlign=middle;resizable=0;points=[];" vertex="1" connectable="0" parent="PDw0ZhWUSigSXVAjHn8G-80">
          <mxGeometry x="0.0211" y="-1" relative="1" as="geometry">
            <mxPoint x="-10" y="51" as="offset" />
          </mxGeometry>
        </mxCell>
        <mxCell id="PDw0ZhWUSigSXVAjHn8G-83" value="使用权资产" style="rounded=0;whiteSpace=wrap;html=1;" vertex="1" parent="1">
          <mxGeometry x="310" y="1140" width="80" height="40" as="geometry" />
        </mxCell>
        <mxCell id="PDw0ZhWUSigSXVAjHn8G-84" value="生产性生物资产" style="rounded=0;whiteSpace=wrap;html=1;" vertex="1" parent="1">
          <mxGeometry x="310" y="1260" width="80" height="40" as="geometry" />
        </mxCell>
        <mxCell id="PDw0ZhWUSigSXVAjHn8G-82" value="工程物资" style="rounded=0;whiteSpace=wrap;html=1;" vertex="1" parent="1">
          <mxGeometry x="310" y="1220" width="80" height="40" as="geometry" />
        </mxCell>
        <mxCell id="PDw0ZhWUSigSXVAjHn8G-96" style="edgeStyle=orthogonalEdgeStyle;rounded=0;orthogonalLoop=1;jettySize=auto;html=1;exitX=1;exitY=0.5;exitDx=0;exitDy=0;" edge="1" parent="1" source="PDw0ZhWUSigSXVAjHn8G-88" target="PDw0ZhWUSigSXVAjHn8G-95">
          <mxGeometry relative="1" as="geometry" />
        </mxCell>
        <mxCell id="PDw0ZhWUSigSXVAjHn8G-97" value="销售" style="edgeLabel;html=1;align=center;verticalAlign=middle;resizable=0;points=[];" vertex="1" connectable="0" parent="PDw0ZhWUSigSXVAjHn8G-96">
          <mxGeometry x="0.0429" y="-2" relative="1" as="geometry">
            <mxPoint y="-17" as="offset" />
          </mxGeometry>
        </mxCell>
        <mxCell id="PDw0ZhWUSigSXVAjHn8G-145" style="edgeStyle=orthogonalEdgeStyle;rounded=0;orthogonalLoop=1;jettySize=auto;html=1;exitX=0.5;exitY=0;exitDx=0;exitDy=0;entryX=0.5;entryY=1;entryDx=0;entryDy=0;" edge="1" parent="1" source="PDw0ZhWUSigSXVAjHn8G-88" target="PDw0ZhWUSigSXVAjHn8G-144">
          <mxGeometry relative="1" as="geometry">
            <Array as="points">
              <mxPoint x="560" y="1390" />
              <mxPoint x="640" y="1390" />
            </Array>
          </mxGeometry>
        </mxCell>
        <mxCell id="PDw0ZhWUSigSXVAjHn8G-146" value="产品成本计入存货" style="edgeLabel;html=1;align=center;verticalAlign=middle;resizable=0;points=[];" vertex="1" connectable="0" parent="PDw0ZhWUSigSXVAjHn8G-145">
          <mxGeometry x="-0.278" relative="1" as="geometry">
            <mxPoint as="offset" />
          </mxGeometry>
        </mxCell>
        <mxCell id="PDw0ZhWUSigSXVAjHn8G-88" value="产品" style="rounded=1;whiteSpace=wrap;html=1;" vertex="1" parent="1">
          <mxGeometry x="520" y="1425" width="80" height="40" as="geometry" />
        </mxCell>
        <mxCell id="PDw0ZhWUSigSXVAjHn8G-95" value="收入" style="rounded=1;whiteSpace=wrap;html=1;" vertex="1" parent="1">
          <mxGeometry x="740" y="1425" width="80" height="40" as="geometry" />
        </mxCell>
        <mxCell id="PDw0ZhWUSigSXVAjHn8G-98" value="应收账款" style="rounded=0;whiteSpace=wrap;html=1;" vertex="1" parent="1">
          <mxGeometry x="740" y="1220" width="80" height="40" as="geometry" />
        </mxCell>
        <mxCell id="PDw0ZhWUSigSXVAjHn8G-159" style="edgeStyle=orthogonalEdgeStyle;rounded=0;orthogonalLoop=1;jettySize=auto;html=1;exitX=0;exitY=0.5;exitDx=0;exitDy=0;entryX=0.5;entryY=1;entryDx=0;entryDy=0;" edge="1" parent="1" source="PDw0ZhWUSigSXVAjHn8G-99" target="PDw0ZhWUSigSXVAjHn8G-155">
          <mxGeometry relative="1" as="geometry" />
        </mxCell>
        <mxCell id="PDw0ZhWUSigSXVAjHn8G-99" value="应收票据" style="rounded=0;whiteSpace=wrap;html=1;" vertex="1" parent="1">
          <mxGeometry x="740" y="1180" width="80" height="40" as="geometry" />
        </mxCell>
        <mxCell id="PDw0ZhWUSigSXVAjHn8G-101" style="edgeStyle=orthogonalEdgeStyle;rounded=0;orthogonalLoop=1;jettySize=auto;html=1;exitX=0.5;exitY=0;exitDx=0;exitDy=0;strokeColor=#ff0000;strokeWidth=2;entryX=0.75;entryY=1;entryDx=0;entryDy=0;" edge="1" parent="1" source="PDw0ZhWUSigSXVAjHn8G-95" target="PDw0ZhWUSigSXVAjHn8G-66">
          <mxGeometry relative="1" as="geometry">
            <mxPoint x="-127" y="1475" as="sourcePoint" />
            <mxPoint x="-127" y="1310" as="targetPoint" />
          </mxGeometry>
        </mxCell>
        <mxCell id="PDw0ZhWUSigSXVAjHn8G-104" value="现付" style="edgeLabel;html=1;align=center;verticalAlign=middle;resizable=0;points=[];" vertex="1" connectable="0" parent="PDw0ZhWUSigSXVAjHn8G-101">
          <mxGeometry x="-0.0303" y="-2" relative="1" as="geometry">
            <mxPoint y="-10" as="offset" />
          </mxGeometry>
        </mxCell>
        <mxCell id="PDw0ZhWUSigSXVAjHn8G-103" value="合同资产" style="rounded=0;whiteSpace=wrap;html=1;" vertex="1" parent="1">
          <mxGeometry x="740" y="1260" width="80" height="40" as="geometry" />
        </mxCell>
        <mxCell id="PDw0ZhWUSigSXVAjHn8G-105" style="edgeStyle=orthogonalEdgeStyle;rounded=0;orthogonalLoop=1;jettySize=auto;html=1;exitX=0.5;exitY=0;exitDx=0;exitDy=0;strokeColor=#ff0000;strokeWidth=2;entryX=0.5;entryY=1;entryDx=0;entryDy=0;" edge="1" parent="1" source="PDw0ZhWUSigSXVAjHn8G-95" target="PDw0ZhWUSigSXVAjHn8G-103">
          <mxGeometry relative="1" as="geometry">
            <mxPoint x="790" y="1435" as="sourcePoint" />
            <mxPoint x="360" y="1270" as="targetPoint" />
          </mxGeometry>
        </mxCell>
        <mxCell id="PDw0ZhWUSigSXVAjHn8G-106" value="赊销" style="edgeLabel;html=1;align=center;verticalAlign=middle;resizable=0;points=[];" vertex="1" connectable="0" parent="PDw0ZhWUSigSXVAjHn8G-105">
          <mxGeometry x="-0.0303" y="-2" relative="1" as="geometry">
            <mxPoint x="11" y="-40" as="offset" />
          </mxGeometry>
        </mxCell>
        <mxCell id="PDw0ZhWUSigSXVAjHn8G-107" value="营业收入" style="rounded=0;whiteSpace=wrap;html=1;" vertex="1" parent="1">
          <mxGeometry x="740" y="1680" width="80" height="40" as="geometry" />
        </mxCell>
        <mxCell id="PDw0ZhWUSigSXVAjHn8G-108" style="edgeStyle=orthogonalEdgeStyle;rounded=0;orthogonalLoop=1;jettySize=auto;html=1;exitX=0.5;exitY=1;exitDx=0;exitDy=0;strokeColor=#ff0000;strokeWidth=2;entryX=0.5;entryY=0;entryDx=0;entryDy=0;" edge="1" parent="1" source="PDw0ZhWUSigSXVAjHn8G-95" target="PDw0ZhWUSigSXVAjHn8G-107">
          <mxGeometry relative="1" as="geometry">
            <mxPoint x="790" y="1435" as="sourcePoint" />
            <mxPoint x="830" y="1620" as="targetPoint" />
          </mxGeometry>
        </mxCell>
        <mxCell id="PDw0ZhWUSigSXVAjHn8G-109" value="确认收入" style="edgeLabel;html=1;align=center;verticalAlign=middle;resizable=0;points=[];" vertex="1" connectable="0" parent="PDw0ZhWUSigSXVAjHn8G-108">
          <mxGeometry x="-0.0303" y="-2" relative="1" as="geometry">
            <mxPoint x="11" y="-40" as="offset" />
          </mxGeometry>
        </mxCell>
        <mxCell id="PDw0ZhWUSigSXVAjHn8G-142" value="&lt;font style=&quot;font-size: 18px;&quot;&gt;生产业务流&lt;/font&gt;" style="text;html=1;align=center;verticalAlign=middle;whiteSpace=wrap;rounded=0;" vertex="1" parent="1">
          <mxGeometry y="1450" width="120" height="50" as="geometry" />
        </mxCell>
        <mxCell id="PDw0ZhWUSigSXVAjHn8G-157" style="edgeStyle=orthogonalEdgeStyle;rounded=0;orthogonalLoop=1;jettySize=auto;html=1;exitX=0.5;exitY=0;exitDx=0;exitDy=0;entryX=0.5;entryY=1;entryDx=0;entryDy=0;" edge="1" parent="1" source="PDw0ZhWUSigSXVAjHn8G-144" target="PDw0ZhWUSigSXVAjHn8G-155">
          <mxGeometry relative="1" as="geometry" />
        </mxCell>
        <mxCell id="PDw0ZhWUSigSXVAjHn8G-144" value="存货" style="rounded=0;whiteSpace=wrap;html=1;" vertex="1" parent="1">
          <mxGeometry x="600" y="1260" width="80" height="40" as="geometry" />
        </mxCell>
        <mxCell id="PDw0ZhWUSigSXVAjHn8G-149" style="edgeStyle=orthogonalEdgeStyle;rounded=0;orthogonalLoop=1;jettySize=auto;html=1;exitX=1;exitY=0.5;exitDx=0;exitDy=0;entryX=0;entryY=0.5;entryDx=0;entryDy=0;" edge="1" parent="1" source="PDw0ZhWUSigSXVAjHn8G-148" target="PDw0ZhWUSigSXVAjHn8G-61">
          <mxGeometry relative="1" as="geometry" />
        </mxCell>
        <mxCell id="PDw0ZhWUSigSXVAjHn8G-148" value="原材料" style="rounded=1;whiteSpace=wrap;html=1;" vertex="1" parent="1">
          <mxGeometry x="150" y="1385" width="80" height="40" as="geometry" />
        </mxCell>
        <mxCell id="PDw0ZhWUSigSXVAjHn8G-151" value="资产减值损失" style="rounded=0;whiteSpace=wrap;html=1;" vertex="1" parent="1">
          <mxGeometry x="850" y="1680" width="80" height="40" as="geometry" />
        </mxCell>
        <mxCell id="PDw0ZhWUSigSXVAjHn8G-160" style="edgeStyle=orthogonalEdgeStyle;rounded=0;orthogonalLoop=1;jettySize=auto;html=1;exitX=1;exitY=0.5;exitDx=0;exitDy=0;entryX=0.5;entryY=0;entryDx=0;entryDy=0;" edge="1" parent="1" source="PDw0ZhWUSigSXVAjHn8G-155" target="PDw0ZhWUSigSXVAjHn8G-151">
          <mxGeometry relative="1" as="geometry" />
        </mxCell>
        <mxCell id="PDw0ZhWUSigSXVAjHn8G-155" value="减值" style="ellipse;whiteSpace=wrap;html=1;aspect=fixed;" vertex="1" parent="1">
          <mxGeometry x="615" y="1095" width="50" height="50" as="geometry" />
        </mxCell>
      </root>
    </mxGraphModel>
  </diagram>
</mxfile>
